<svg width="187" height="26" viewBox="0 0 187 26" fill="none" xmlns="http://www.w3.org/2000/svg">
<path d="M40.1084 13.4674C40.1084 9.18165 43.4047 6.14017 48.038 6.14017C51.0116 6.14017 53.3628 7.31528 54.4001 9.61944L50.5967 10.6333C49.8821 9.87289 48.9831 9.52727 48.015 9.52727C45.9173 9.52727 44.2807 10.9789 44.2807 13.4674C44.2807 15.9559 45.9173 17.4075 48.015 17.4075C49.0062 17.4075 49.8821 17.0618 50.5967 16.3015L54.4001 17.2001C53.3628 19.4582 51.0116 20.7715 48.038 20.7715C43.4047 20.7946 40.1084 17.7531 40.1084 13.4674Z" fill="#012A38"/>
<path d="M71.1117 12.4535V20.5872H66.9855V13.0757C66.9855 10.7715 65.9252 9.71159 64.1041 9.71159C62.1217 9.71159 60.6926 10.9328 60.6926 13.5365V20.5641H56.5664V1.96964L60.7156 0.978851V7.84522C61.8221 6.73923 63.4126 6.16319 65.2336 6.16319C68.5761 6.16319 71.1117 8.12172 71.1117 12.4535Z" fill="#012A38"/>
<path d="M89.1154 5.70239V20.5872H85.1736V18.9513C84.1363 20.1955 82.638 20.7946 80.7248 20.7946C76.7139 20.7946 73.625 17.9374 73.625 13.4674C73.625 8.99733 76.7139 6.14018 80.7248 6.14018C82.4767 6.14018 83.9519 6.69318 84.9892 7.8683V6.71622L89.1154 5.70239ZM85.0814 13.4674C85.0814 11.0019 83.4909 9.52728 81.4624 9.52728C79.4108 9.52728 77.8203 11.0019 77.8203 13.4674C77.8203 15.9328 79.4108 17.4075 81.4624 17.4075C83.4909 17.4075 85.0814 15.9328 85.0814 13.4674Z" fill="#012A38"/>
<path d="M101.471 6.16322V9.96507C101.125 9.94203 100.872 9.91899 100.549 9.91899C98.2671 9.91899 96.7687 11.1632 96.7687 13.8821V20.5872H92.6426V6.6471L96.5843 5.70239V8.23696C97.5755 6.87751 99.2583 6.16322 101.471 6.16322Z" fill="#012A38"/>
<path d="M118.367 5.70239V18.1909C118.367 23.4674 115.509 25.9098 110.392 25.9098C107.695 25.9098 105.09 25.2416 103.407 23.9513L105.044 21.002C106.266 21.9697 108.248 22.6149 110.069 22.6149C112.973 22.6149 114.241 21.3015 114.241 18.7208V18.1218C113.158 19.3199 111.59 19.896 109.746 19.896C105.804 19.896 102.646 17.1771 102.646 13.0296C102.646 8.88212 105.828 6.16322 109.746 6.16322C111.729 6.16322 113.365 6.83143 114.449 8.19088V6.67014L118.367 5.70239ZM114.31 13.0296C114.31 10.9328 112.743 9.55033 110.576 9.55033C108.409 9.55033 106.819 10.9559 106.819 13.0296C106.819 15.1264 108.409 16.5089 110.576 16.5089C112.743 16.5089 114.31 15.1033 114.31 13.0296Z" fill="#012A38"/>
<path d="M125.582 15.8176C126.25 16.9236 127.495 17.4996 129.132 17.4996C130.63 17.4996 131.713 17.0618 132.705 16.1171L134.894 18.4904C133.58 19.9881 131.598 20.7946 129.016 20.7946C124.106 20.7946 120.902 17.707 120.902 13.4674C120.902 9.20469 124.13 6.14017 128.509 6.14017C132.451 6.14017 135.678 8.7669 135.84 13.1217L125.582 15.8176ZM124.959 13.3752L131.898 11.7162C131.506 10.2646 130.261 9.27381 128.532 9.27381C126.481 9.27381 124.959 10.5872 124.959 13.3752Z" fill="#012A38"/>
<path d="M160.159 15.8176C160.827 16.9236 162.072 17.4996 163.709 17.4996C165.207 17.4996 166.29 17.0618 167.282 16.1171L169.472 18.4904C168.158 19.9881 166.175 20.7946 163.593 20.7946C158.684 20.7946 155.479 17.707 155.479 13.4674C155.479 9.20469 158.707 6.14017 163.086 6.14017C167.028 6.14017 170.255 8.7669 170.417 13.1217L160.159 15.8176ZM159.536 13.3752L166.475 11.7162C166.083 10.2646 164.838 9.27381 163.109 9.27381C161.058 9.27381 159.536 10.5872 159.536 13.3752Z" fill="#012A38"/>
<path d="M176.686 15.8176C177.355 16.9236 178.599 17.4996 180.236 17.4996C181.734 17.4996 182.818 17.0618 183.809 16.1171L185.999 18.4904C184.685 19.9881 182.703 20.7946 180.121 20.7946C175.211 20.7946 172.007 17.707 172.007 13.4674C172.007 9.20469 175.234 6.14017 179.614 6.14017C183.555 6.14017 186.783 8.7669 186.944 13.1217L176.686 15.8176ZM176.064 13.3752L183.002 11.7162C182.61 10.2646 181.343 9.27381 179.614 9.27381C177.585 9.27381 176.064 10.5872 176.064 13.3752Z" fill="#012A38"/>
<path d="M153.889 13.4674C153.889 17.9374 150.8 20.7946 146.812 20.7946C144.899 20.7946 143.378 20.1955 142.34 18.9512V20.5872H138.398V1.99268L142.525 0.978851V7.86827C143.585 6.71619 145.037 6.14015 146.812 6.14015C150.8 6.16319 153.889 9.02034 153.889 13.4674ZM149.717 13.4674C149.717 11.0019 148.149 9.52726 146.098 9.52726C144.046 9.52726 142.478 11.0019 142.478 13.4674C142.478 15.9328 144.046 17.4075 146.098 17.4075C148.149 17.4075 149.717 15.9328 149.717 13.4674Z" fill="#012A38"/>
<path d="M9.10449 13.4443L25.563 9.52726V1.00189H17.0341L9.10449 13.4443Z" fill="#FF3300"/>
<path d="M0.944336 13.3061C0.944336 14.3199 1.05959 15.3107 1.31315 16.2554L9.10445 13.4443L1.244 10.6102C1.03654 11.4858 0.944336 12.3844 0.944336 13.3061Z" fill="#FF3300"/>
<path d="M3.84863 5.35674L9.1043 13.4443L11.5247 1.1171C8.45887 1.55488 5.76188 3.09867 3.84863 5.35674Z" fill="#FF3300"/>
<path d="M9.10449 13.4443L25.563 17.3614V25.9098H17.0341L9.10449 13.4443Z" fill="#FF3300"/>
<path d="M3.84863 21.5319L9.1043 13.4443L11.5247 25.7715C8.45887 25.3568 5.76188 23.7899 3.84863 21.5319Z" fill="#FF3300"/>
</svg>
