<svg width="87" height="38" viewBox="0 0 87 38" fill="none" xmlns="http://www.w3.org/2000/svg">
<path d="M76.6995 28.3217C74.9401 27.7652 75.5864 24.2014 75.5864 24.2014C76.2417 24.5963 77.7049 25.117 79.1771 24.7579C81.17 24.3001 82.9294 20.9338 82.4088 19.0038C82.0138 17.5944 80.6763 17.0379 79.0425 17.3341C76.924 17.7291 74.8144 19.6142 73.6833 22.1098C73.3512 22.8369 73.1986 23.9141 73.1178 24.6322C73.037 25.4222 73.1268 26.2301 73.405 26.9752C74.4553 29.7939 77.4536 30.162 79.4644 29.2373C79.8324 29.0668 80.2184 28.8334 80.5955 28.5551C80.9725 28.2768 81.2238 28.0345 81.2238 27.5587V27.5318C81.2238 27.2355 80.8917 27.065 80.6493 27.2355C79.3477 28.1691 77.7767 28.6539 76.6906 28.3127L76.6995 28.3217ZM77.9473 20.2067C80.1197 18.2318 81.7265 18.1241 81.0982 19.7399C80.3262 21.5801 78.3513 23.7256 76.0442 23.1241C76.3494 22.2175 77.2471 20.8799 77.9563 20.2067H77.9473ZM76.2956 13.9588L75.1196 14.4526C74.8234 14.5872 74.5092 14.6231 74.4015 15.2694C73.8449 18.7345 68.1357 27.6305 66.9597 28.2858C65.7478 28.9411 67.7138 21.0236 69.15 18.537C69.5091 17.9176 69.3745 17.756 69.0513 17.5585L67.8125 16.7775C67.3188 16.4813 67.0315 16.5172 66.7981 16.7775C66.2775 17.3341 65.4875 19.0038 64.8053 21.3916C64.5449 22.3073 64.3834 23.2588 64.2218 24.1026C63.5036 26.6161 60.0117 28.6808 58.0547 28.0614C56.2953 27.5048 56.9416 23.941 56.9416 23.941C57.5969 24.336 59.0601 24.8567 60.5323 24.4976C62.5252 24.0398 64.2846 20.6735 63.764 18.7435C63.369 17.3341 62.0314 16.7775 60.3977 17.0738C58.2791 17.4688 56.1875 19.3629 55.0385 21.8494C53.6651 24.8297 49.7781 29.2373 49.06 28.9411C48.7368 28.8065 48.9253 27.7292 49.3831 26.293C50.2629 23.5101 52.2198 19.3629 53.3958 18.546C52.7135 17.9535 51.6632 17.7291 50.9182 17.7291C49.805 17.7291 47.5878 23.0613 47.1299 25.907C46.6721 28.7526 46.9325 29.1476 47.8122 29.8298C48.6919 30.548 49.7691 30.5121 50.8194 29.4348C51.5017 28.7167 53.3688 26.4545 54.4101 24.6951V25.117C54.7692 29.3002 58.4946 30.2517 60.8465 29.1745C62.0225 28.6179 63.36 27.4779 64.141 26.1314C64.141 27.828 64.536 29.1386 65.281 29.7939C66.1608 30.5749 66.8161 31.1315 67.3726 30.3505C68.7461 28.4205 74.2668 20.8351 76.7444 14.3897C76.8432 14.1294 76.5469 13.8691 76.2866 13.9678L76.2956 13.9588ZM59.2935 19.9464C61.4659 17.9715 63.0727 17.8637 62.4444 19.4796C61.6724 21.3198 59.6975 23.4653 57.3904 22.8638C57.6956 21.9572 58.5933 20.6196 59.3025 19.9464H59.2935ZM55.7567 13.4023C55.5322 13.2407 55.236 12.9445 54.8141 12.6482C54.1319 12.1545 53.1175 12.4148 52.139 14.2192C50.963 16.3467 52.6956 17.1635 53.3509 17.388C53.4855 17.4239 53.6471 17.3521 53.674 17.2264C54.2306 15.6195 55.245 14.3448 55.7926 13.9229C55.9272 13.8242 55.9901 13.5639 55.7567 13.4023ZM36.1603 26.7867C35.3614 26.7867 34.6881 26.5533 34.1226 25.9518L41.8516 21.8315C41.0796 19.1474 38.8354 17.4777 36.0256 17.4777C32.8748 17.4777 30.101 19.9912 30.101 23.5101C30.101 27.0291 32.5067 29.7131 36.1603 29.7131C37.8659 29.7131 39.4727 29.0399 40.7833 27.6036V24.2822C39.5446 25.7903 37.803 26.7957 36.1603 26.7957V26.7867ZM33.2518 23.2319C33.2518 21.6519 34.4278 20.3144 36.0616 20.3144C36.9682 20.3144 37.6684 20.6196 38.1352 21.1492H38.0724L33.3506 23.7615C33.2518 23.564 33.2518 23.4294 33.2518 23.2229V23.2319ZM24.3827 26.8495C23.5838 26.8854 22.9105 26.7149 22.2732 26.1763L29.6342 21.4186C28.7006 18.8332 26.3217 17.2982 23.4402 17.5316C20.397 17.8009 17.7489 20.5478 18.081 24.0667C18.3503 27.5228 20.9626 30.0004 24.6071 29.7311C26.3486 29.5605 27.8568 28.8244 29.0237 27.2804L28.7544 23.959C27.6503 25.6017 26.0075 26.7059 24.3738 26.8405L24.3827 26.8495ZM21.196 23.5012C21.0972 21.9572 22.1655 20.5478 23.8082 20.4132C24.6431 20.3144 25.4151 20.5837 25.8819 21.0864L21.2947 24.0398C21.2588 23.8423 21.196 23.7076 21.196 23.5012ZM11.9947 17.4598C10.7919 17.4598 9.58896 17.765 8.71821 18.7704V13.4112H5.27112V29.2643H8.58356V28.0883H8.61947C9.12217 29.0309 10.5315 29.6952 11.896 29.6952C15.4149 29.6952 17.6501 27.047 17.6501 23.4922C17.6501 19.6681 14.975 17.4598 11.9947 17.4598ZM11.3933 26.4815C9.78645 26.4815 8.61947 25.2068 8.61947 23.5012C8.61947 21.9213 9.85826 20.6196 11.4292 20.6196C13.0001 20.6196 14.203 21.9931 14.203 23.573C14.203 25.1529 13.0001 26.4904 11.3933 26.4904V26.4815ZM51.7261 6.33752L49.814 5.56552C49.4819 5.43087 49.1138 5.56552 48.9074 5.83482C46.1605 9.48838 42.2825 19.7758 42.2825 26.3827C42.2825 31.2392 45.2269 31.8496 47.0312 31.6431C47.2646 31.6072 47.2287 31.3379 47.094 31.2751C46.3579 30.9429 45.0204 30.1979 45.0204 27.424C45.0204 24.3091 46.9594 15.2874 52.0492 7.41474C52.3185 7.01079 52.148 6.50808 51.7171 6.33752H51.7261Z" fill="#FF7E6F"/>
</svg>
